<svg height="511pt" viewBox="0 -25 511.99898 511" width="511pt" xmlns="http://www.w3.org/2000/svg"><path d="m506.648438 115.78125c-8.527344-33.441406-26.703126-62.273438-52.5625-83.386719-25.191407-20.566406-56.054688-31.894531-86.894532-31.894531-23.648437 0-46.203125 6.367188-67.042968 18.921875-16.457032 9.914063-31.261719 23.40625-44.191407 40.238281-29.414062-38.332031-68.238281-59.160156-111.183593-59.160156-30.832032 0-61.679688 11.328125-86.867188 31.894531-25.851562 21.113281-44.023438 49.945313-52.550781 83.382813-9.273438 36.363281-11.066407 94.476562 33.046875 164.828125 40.832031 65.113281 111.609375 125.441406 210.371094 179.316406 2.238281 1.222656 4.707031 1.832031 7.179687 1.832031s4.945313-.609375 7.183594-1.832031c98.785156-53.875 169.589843-114.207031 210.4375-179.316406 44.128906-70.351563 42.34375-128.460938 33.074219-164.824219zm0 0" fill="#ff5b5b"/><path d="m506.648438 115.78125c-8.527344-33.441406-26.703126-62.273438-52.5625-83.386719-25.191407-20.566406-56.054688-31.894531-86.894532-31.894531-23.648437 0-46.203125 6.367188-67.042968 18.921875-16.441407 9.90625-31.226563 23.375-44.148438 40.1875v402.144531c2.457031-.011718 4.910156-.617187 7.132812-1.832031 98.789063-53.875 169.59375-114.207031 210.4375-179.316406 44.132813-70.351563 42.347657-128.460938 33.078126-164.824219zm0 0" fill="#ff0059"/><path d="m108.765625 237.832031 18.714844-37.429687 50.839843 101.683594c2.542969 5.082031 7.734376 8.292968 13.414063 8.292968 5.683594 0 10.875-3.210937 13.414063-8.292968l50.84375-101.683594 18.714843 37.429687c2.539063 5.082031 7.734375 8.289063 13.414063 8.289063h113.742187c8.28125 0 14.996094-6.714844 14.996094-14.996094s-6.714844-14.996094-14.996094-14.996094h-104.472656l-27.984375-55.96875c-2.539062-5.078125-7.734375-8.289062-13.414062-8.289062-5.679688 0-10.871094 3.210937-13.414063 8.289062l-50.839844 101.683594-50.84375-101.683594c-2.539062-5.078125-7.730469-8.289062-13.414062-8.289062-5.679688 0-10.875 3.210937-13.414063 8.289062l-27.980468 55.96875h-77.488282c2.871094 9.632813 6.570313 19.640625 11.234375 29.992188h75.523438c5.675781 0 10.871093-3.207032 13.410156-8.289063zm0 0" fill="#e7f0ef"/><path d="m401.859375 216.128906h-104.472656l-27.980469-55.96875c-2.539062-5.078125-7.730469-8.285156-13.40625-8.289062v48.550781l18.703125 37.410156c2.542969 5.082031 7.734375 8.289063 13.417969 8.289063h113.738281c8.28125 0 15-6.714844 15-14.996094-.003906-8.28125-6.71875-14.996094-15-14.996094zm0 0" fill="#c5e1e6"/></svg>